# xmcd CD database file
#
# Track frame offsets:
#	150
#	19245
#	38514
#	52308
#	66282
#	81914
#	98930
#	112226
#	125833
#	140665
#	155625
#	174201
#	190873
#	203340
#	221393
#	234830
#	248298
#	263504
#	277826
#	291792
#	308902
#	323631
#	342674
#
# Disc length: 4727 seconds
#
# Revision: 0
# Processed by: cddbd v1.5.1PL2 Copyright (c) Steve Scherf et al.
# Submitted via: CDex 1.51
#
DISCID=4b127517
DTITLE=Various Artist - El Coda 11
DYEAR=1900
DGENRE=Country
TTITLE0=Shaking Stevens - Rock and roll mix
TTITLE1=Ove Støylen - Lost And Found
TTITLE2=Tractors - Think it over
TTITLE3=Jane McDonald - Blame It On The Bossa Nova
TTITLE4=Oreja - Manana por la manana (kort)
TTITLE5=Wrights - Roller coaster
TTITLE6=Scooter Lee - Sweet Sweet Smile
TTITLE7=Engelbert Humperdinck - Les Bicyclettes de Belsize
TTITLE8=Braxx - Loco Loco
TTITLE9=John Fogerty - My Toot-Toot
TTITLE10=Brad Paisley - The World
TTITLE11=Lee Ann Womack and Vince Gill - I Keep Forgetting
TTITLE12=Kevin Fowler - Get along
TTITLE13=Sandra Mooy - Cembury
TTITLE14=Deans - The Shape I'm In
TTITLE15=Belle Perez - Enamorada
TTITLE16=Cristal Clear - Making Believe
TTITLE17=Lennerockers - Rattlesnake cafe
TTITLE18=Brushwood  Margaritas And Senoritas
TTITLE19=Miranda Lambert - I wanna die
TTITLE20=Heather Myles - Make A Fool Out Of Me
TTITLE21=Greg Holland - Come over me
TTITLE22=Carlene Carter - You are the One
EXTD=
EXTT0=
EXTT1=
EXTT2=
EXTT3=
EXTT4=
EXTT5=
EXTT6=
EXTT7=
EXTT8=
EXTT9=
EXTT10=
EXTT11=
EXTT12=
EXTT13=
EXTT14=
EXTT15=
EXTT16=
EXTT17=
EXTT18=
EXTT19=
EXTT20=
EXTT21=
EXTT22=
PLAYORDER=
